<svg id="svg" version="1.1" xmlns="http://www.w3.org/2000/svg" xmlns:xlink="http://www.w3.org/1999/xlink" width="400" height="400" viewBox="0, 0, 400,400"><g id="svgg"><path id="path0" d="M383.600 14.724 C 383.600 15.148,385.145 16.597,385.349 16.364 C 385.428 16.274,385.067 15.789,384.546 15.286 C 384.026 14.783,383.600 14.530,383.600 14.724 M14.514 16.242 C 14.027 16.769,13.757 17.197,13.914 17.194 C 14.317 17.185,14.908 16.717,15.549 15.900 C 16.364 14.861,15.540 15.134,14.514 16.242 M94.275 95.079 C 94.154 95.275,94.087 101.098,94.127 108.018 L 94.200 120.600 95.324 120.729 C 95.942 120.800,96.669 120.674,96.940 120.450 C 97.322 120.132,111.441 119.798,116.900 119.977 C 117.625 120.001,117.936 121.600,117.215 121.600 C 116.596 121.600,115.832 159.203,116.416 160.963 C 116.958 162.595,116.945 274.552,116.403 274.732 C 116.181 274.806,116.000 275.561,116.000 276.410 C 116.000 277.258,115.820 278.064,115.600 278.200 C 115.380 278.336,115.200 278.977,115.200 279.624 C 115.200 280.271,114.999 280.800,114.753 280.800 C 114.504 280.800,114.399 281.153,114.516 281.600 C 114.655 282.131,114.528 282.400,114.139 282.400 C 113.817 282.400,113.650 282.557,113.768 282.748 C 113.887 282.940,113.627 283.508,113.192 284.010 C 112.756 284.512,112.400 285.067,112.400 285.243 C 112.400 285.419,111.961 286.003,111.424 286.539 C 110.888 287.076,110.558 287.624,110.691 287.758 C 110.824 287.891,110.543 288.000,110.067 288.000 C 109.590 288.000,109.200 288.180,109.200 288.400 C 109.200 288.620,108.840 288.800,108.400 288.800 C 107.960 288.800,107.600 288.980,107.600 289.200 C 107.600 289.420,107.075 289.600,106.433 289.600 C 105.792 289.600,105.207 289.776,105.133 289.990 C 105.060 290.205,104.048 290.413,102.884 290.454 C 101.720 290.495,100.675 290.679,100.560 290.864 C 100.446 291.049,99.103 291.200,97.576 291.200 L 94.800 291.200 94.800 302.000 L 94.800 312.800 129.700 312.714 C 148.895 312.666,161.270 312.525,157.200 312.400 C 153.130 312.275,150.835 312.134,152.100 312.086 L 154.400 312.000 154.400 300.800 L 154.400 289.600 152.600 289.600 C 151.610 289.600,150.821 289.465,150.847 289.300 C 150.999 288.340,150.673 288.000,149.600 288.000 C 148.780 288.000,148.400 288.197,148.400 288.624 C 148.400 288.967,148.217 289.134,147.993 288.996 C 147.770 288.858,147.691 288.577,147.817 288.372 C 147.944 288.168,147.857 288.000,147.624 288.000 C 147.391 288.000,147.200 288.180,147.200 288.400 C 147.200 288.620,146.480 288.800,145.600 288.800 L 144.000 288.800 144.000 285.224 C 144.000 283.257,144.168 281.543,144.373 281.417 C 144.916 281.081,144.862 199.556,144.319 198.902 C 144.062 198.593,144.052 198.400,144.293 198.400 C 144.507 198.400,144.719 197.033,144.764 195.363 C 144.816 193.386,144.702 192.413,144.437 192.577 C 144.190 192.730,144.063 192.366,144.115 191.653 C 144.162 191.007,144.335 190.561,144.500 190.663 C 144.665 190.764,144.755 188.334,144.700 185.262 C 144.642 182.047,144.446 179.772,144.237 179.901 C 144.026 180.031,144.005 179.721,144.186 179.163 C 144.757 177.397,144.898 174.738,144.443 174.283 C 144.196 174.036,144.003 172.506,144.007 170.820 L 144.015 167.800 145.107 169.153 C 145.708 169.897,146.785 171.137,147.500 171.909 C 148.215 172.681,148.800 173.459,148.800 173.638 C 148.800 174.123,150.793 176.971,150.842 176.556 C 150.866 176.360,150.858 175.660,150.825 175.000 C 150.780 174.100,150.863 173.945,151.156 174.381 C 151.371 174.700,151.458 175.105,151.350 175.281 C 151.242 175.456,151.354 175.600,151.600 175.600 C 151.858 175.600,151.915 175.812,151.735 176.100 C 151.214 176.934,151.249 177.533,151.833 177.757 C 152.166 177.885,152.283 178.241,152.126 178.649 C 151.915 179.199,152.038 179.283,152.772 179.091 C 153.271 178.961,153.578 178.956,153.454 179.080 C 153.330 179.204,153.411 179.647,153.634 180.064 C 154.096 180.927,154.803 180.690,154.794 179.676 C 154.789 179.093,154.734 179.083,154.400 179.600 C 154.069 180.113,154.011 180.098,154.006 179.500 C 154.003 179.109,154.309 178.786,154.700 178.768 C 155.118 178.750,155.199 178.656,154.900 178.535 C 153.992 178.169,154.189 112.162,155.100 111.632 C 155.581 111.352,155.627 111.221,155.247 111.212 C 154.807 111.202,153.200 109.770,153.200 109.388 C 153.200 109.338,153.830 109.583,154.600 109.932 C 155.714 110.437,156.000 110.795,156.000 111.683 C 156.000 112.350,156.216 112.800,156.536 112.800 C 156.830 112.800,157.258 113.210,157.487 113.711 C 157.715 114.212,158.280 114.651,158.743 114.686 C 159.635 114.753,159.583 114.630,157.933 112.805 C 157.567 112.399,157.340 111.994,157.429 111.904 C 157.519 111.815,157.054 111.226,156.396 110.596 C 155.738 109.966,155.200 109.296,155.200 109.107 C 155.200 107.937,152.074 106.041,151.538 106.886 C 151.298 107.264,151.211 107.215,151.206 106.700 C 151.203 106.315,151.470 106.000,151.800 106.000 C 152.130 106.000,152.400 105.848,152.400 105.661 C 152.400 105.097,150.938 103.596,150.659 103.874 C 150.517 104.017,150.400 103.833,150.400 103.467 C 150.400 103.100,150.141 102.800,149.824 102.800 C 149.507 102.800,149.119 102.592,148.962 102.338 C 148.785 102.052,148.852 101.985,149.138 102.162 C 149.753 102.542,149.704 101.970,149.048 101.106 C 148.758 100.725,148.404 100.530,148.260 100.673 C 148.117 100.816,147.997 100.678,147.994 100.367 C 147.989 99.900,147.919 99.906,147.600 100.400 C 147.299 100.866,147.211 100.749,147.206 99.876 C 147.203 99.230,147.030 98.858,146.800 99.000 C 146.580 99.136,146.378 99.057,146.350 98.824 C 146.322 98.591,146.278 98.205,146.250 97.968 C 146.222 97.730,145.885 97.305,145.500 97.024 C 145.115 96.742,144.800 96.384,144.800 96.227 C 144.800 95.073,143.382 94.998,119.148 94.861 C 104.961 94.781,94.402 94.873,94.275 95.079 M160.293 116.834 C 160.452 117.442,160.597 117.528,160.829 117.153 C 161.173 116.596,160.959 116.000,160.414 116.000 C 160.227 116.000,160.173 116.375,160.293 116.834 M162.952 119.781 C 162.829 120.100,162.846 120.550,162.988 120.781 C 163.355 121.375,164.505 121.303,164.283 120.700 C 164.183 120.425,163.904 120.243,163.664 120.295 C 163.425 120.348,163.332 120.123,163.457 119.795 C 163.583 119.468,163.571 119.200,163.430 119.200 C 163.290 119.200,163.075 119.461,162.952 119.781 M166.507 123.955 C 166.542 124.420,166.824 124.800,167.134 124.800 C 167.609 124.800,167.613 124.689,167.162 124.100 C 166.867 123.715,166.585 123.335,166.535 123.255 C 166.484 123.175,166.472 123.490,166.507 123.955 M169.200 127.314 C 169.200 127.623,169.560 128.202,170.000 128.600 C 170.454 129.011,170.800 129.124,170.800 128.862 C 170.800 128.608,170.620 128.400,170.400 128.400 C 170.180 128.400,170.000 128.141,170.000 127.824 C 170.000 127.507,169.820 127.136,169.600 127.000 C 169.380 126.864,169.200 127.006,169.200 127.314 M173.600 132.577 C 173.600 133.456,175.067 135.193,175.800 135.182 C 176.020 135.178,175.885 134.992,175.500 134.768 C 175.115 134.544,174.800 134.176,174.800 133.952 C 174.800 133.727,174.530 133.273,174.200 132.943 C 173.870 132.613,173.600 132.448,173.600 132.577 M258.703 190.038 C 258.646 218.659,258.735 242.160,258.900 242.262 C 259.065 242.364,259.200 218.947,259.200 190.224 C 259.200 161.501,259.111 138.000,259.003 138.000 C 258.895 138.000,258.760 161.417,258.703 190.038 M202.418 169.234 C 202.664 169.693,202.944 169.989,203.042 169.892 C 203.322 169.612,202.754 168.400,202.343 168.400 C 202.139 168.400,202.173 168.775,202.418 169.234 M155.712 182.289 C 155.374 182.407,155.465 182.718,156.008 183.300 C 156.439 183.763,156.923 184.010,157.084 183.849 C 157.245 183.688,157.184 183.431,156.948 183.278 C 156.713 183.125,156.448 182.802,156.360 182.560 C 156.272 182.318,155.980 182.196,155.712 182.289 M157.267 185.159 C 156.937 185.363,157.102 185.627,157.792 185.996 C 158.346 186.292,158.919 186.414,159.066 186.267 C 159.213 186.120,159.101 186.000,158.818 186.000 C 158.442 186.000,158.418 185.860,158.731 185.484 C 159.223 184.891,158.103 184.642,157.267 185.159 M167.347 198.599 C 167.591 199.118,167.867 199.466,167.959 199.374 C 168.051 199.282,168.397 199.430,168.727 199.703 C 169.253 200.138,169.263 200.095,168.805 199.359 C 167.968 198.015,166.779 197.395,167.347 198.599 M173.292 206.075 C 173.379 206.336,173.664 206.621,173.925 206.708 C 174.218 206.806,174.307 206.623,174.157 206.233 C 173.878 205.506,173.052 205.355,173.292 206.075 M175.692 209.275 C 175.779 209.536,176.064 209.821,176.325 209.908 C 176.618 210.006,176.707 209.823,176.557 209.433 C 176.278 208.706,175.452 208.555,175.692 209.275 M240.015 216.200 C 240.017 216.420,240.386 217.050,240.836 217.600 C 241.379 218.264,241.515 218.331,241.240 217.800 C 240.566 216.495,240.012 215.772,240.015 216.200 M189.600 227.029 C 189.600 227.327,190.675 228.400,190.975 228.400 C 191.102 228.400,190.982 228.040,190.707 227.600 C 190.238 226.849,189.600 226.520,189.600 227.029 M151.200 288.455 C 151.200 288.860,153.953 289.269,154.823 288.993 C 156.212 288.552,155.237 288.030,153.187 288.116 C 152.094 288.162,151.200 288.315,151.200 288.455 M156.000 288.435 C 156.000 288.636,156.345 288.800,156.767 288.800 C 157.189 288.800,157.779 288.894,158.079 289.009 C 158.378 289.124,158.936 288.989,159.319 288.709 C 159.918 288.270,159.737 288.191,158.007 288.135 C 156.903 288.100,156.000 288.235,156.000 288.435 " stroke="none" fill="#d43ced" fill-rule="evenodd"></path><path id="path1" d="M133.119 95.098 C 134.944 95.172,137.824 95.172,139.519 95.097 C 141.214 95.022,139.720 94.961,136.200 94.962 C 132.680 94.962,131.294 95.024,133.119 95.098 M151.206 106.700 C 151.211 107.254,151.285 107.285,151.561 106.849 C 151.753 106.546,152.111 106.421,152.355 106.572 C 152.600 106.724,152.800 106.657,152.800 106.424 C 152.800 106.191,152.440 106.000,152.000 106.000 C 151.502 106.000,151.202 106.265,151.206 106.700 M153.200 109.388 C 153.200 109.770,154.807 111.202,155.247 111.212 C 155.627 111.221,155.581 111.352,155.100 111.632 C 154.189 112.162,153.992 178.169,154.900 178.535 C 155.199 178.656,155.118 178.750,154.700 178.768 C 154.309 178.786,154.003 179.109,154.006 179.500 C 154.011 180.104,154.071 180.118,154.438 179.600 C 154.767 179.138,154.810 179.253,154.625 180.100 C 154.486 180.737,154.556 181.200,154.792 181.200 C 155.017 181.200,155.200 181.489,155.200 181.843 C 155.200 182.250,155.420 182.401,155.800 182.255 C 156.165 182.115,156.400 182.255,156.400 182.613 C 156.400 182.936,156.592 183.200,156.827 183.200 C 157.072 183.200,157.146 183.541,157.000 184.000 C 156.758 184.763,157.550 185.094,158.968 184.825 C 159.170 184.786,159.103 185.035,158.819 185.377 C 158.394 185.889,158.400 186.001,158.851 186.006 C 159.282 186.011,159.271 186.095,158.800 186.400 C 158.470 186.613,158.381 186.791,158.602 186.794 C 158.824 186.797,159.254 187.364,159.559 188.052 C 159.864 188.741,160.448 189.392,160.857 189.499 C 161.265 189.606,161.600 189.942,161.600 190.247 C 161.600 190.551,161.791 190.800,162.024 190.800 C 162.257 190.800,162.336 190.980,162.200 191.200 C 162.064 191.420,162.101 191.600,162.282 191.600 C 162.463 191.600,163.056 192.320,163.600 193.200 C 164.144 194.080,164.714 194.800,164.867 194.800 C 165.021 194.800,165.260 195.160,165.400 195.600 C 165.540 196.040,165.912 196.400,166.227 196.400 C 166.542 196.400,166.800 196.660,166.800 196.977 C 166.800 197.295,167.180 197.820,167.643 198.145 C 168.107 198.470,168.364 198.935,168.214 199.178 C 168.060 199.427,168.171 199.572,168.470 199.510 C 168.762 199.449,168.953 199.630,168.896 199.911 C 168.839 200.192,169.064 200.527,169.396 200.654 C 169.728 200.781,170.000 201.044,170.000 201.238 C 170.000 201.661,170.877 202.759,172.900 204.868 C 173.725 205.728,174.400 206.586,174.400 206.774 C 174.400 206.962,174.895 207.671,175.500 208.349 C 177.372 210.449,177.640 210.800,177.373 210.800 C 177.232 210.800,177.668 211.316,178.344 211.947 C 179.019 212.578,179.466 213.201,179.336 213.330 C 179.207 213.460,179.743 214.249,180.527 215.083 C 182.995 217.706,183.999 218.984,184.000 219.500 C 184.000 219.775,184.281 220.000,184.624 220.000 C 184.967 220.000,185.137 220.179,185.002 220.397 C 184.867 220.615,185.800 221.796,187.076 223.021 C 188.351 224.247,189.042 225.114,188.610 224.949 C 187.911 224.680,187.889 224.716,188.413 225.282 C 188.736 225.631,189.135 225.834,189.300 225.734 C 189.465 225.635,189.600 225.844,189.600 226.200 C 189.600 226.556,189.780 226.736,190.000 226.600 C 190.220 226.464,190.400 226.611,190.400 226.927 C 190.400 227.243,190.668 227.724,190.996 227.996 C 191.323 228.268,191.500 228.638,191.388 228.819 C 191.277 228.999,191.729 229.131,192.393 229.113 L 193.600 229.078 193.600 194.916 C 193.600 172.506,193.736 160.837,193.995 160.997 C 194.229 161.142,194.285 160.965,194.132 160.566 C 193.951 160.096,194.044 159.947,194.436 160.077 C 194.746 160.179,195.058 160.654,195.128 161.131 C 195.198 161.609,195.435 162.000,195.655 162.000 C 196.152 162.000,195.684 160.427,194.976 159.719 C 194.691 159.433,194.254 159.200,194.005 159.200 C 193.756 159.200,193.681 158.992,193.838 158.738 C 194.006 158.466,193.949 158.384,193.698 158.539 C 193.039 158.947,192.025 158.401,192.267 157.769 C 192.386 157.459,192.690 157.328,192.942 157.479 C 193.194 157.630,193.151 157.447,192.847 157.072 C 192.441 156.572,192.157 156.504,191.778 156.818 C 191.377 157.151,191.313 157.055,191.488 156.386 C 191.646 155.783,191.398 155.235,190.656 154.547 C 190.075 154.008,189.600 153.382,189.600 153.155 C 189.600 152.714,188.633 151.627,188.114 151.486 C 187.941 151.439,187.845 151.265,187.900 151.100 C 187.955 150.935,187.820 150.800,187.600 150.800 C 187.380 150.800,187.200 150.519,187.200 150.176 C 187.200 149.833,187.020 149.664,186.800 149.800 C 186.580 149.936,186.378 149.857,186.350 149.624 C 186.322 149.391,186.278 149.052,186.250 148.871 C 186.157 148.259,184.897 147.236,184.583 147.519 C 184.412 147.674,184.384 147.602,184.522 147.361 C 184.660 147.119,184.419 146.541,183.986 146.077 C 183.554 145.613,183.200 145.137,183.200 145.019 C 183.200 144.901,182.300 143.885,181.200 142.761 C 180.100 141.638,179.200 140.510,179.200 140.256 C 179.200 140.001,178.840 139.568,178.400 139.293 C 177.960 139.018,177.600 138.511,177.600 138.165 C 177.600 137.820,176.880 136.846,176.000 136.000 C 175.120 135.154,174.400 134.296,174.400 134.093 C 174.400 133.889,173.770 133.074,173.000 132.281 C 172.230 131.488,171.600 130.731,171.600 130.598 C 171.600 130.465,171.061 129.781,170.402 129.078 C 169.743 128.375,169.203 127.600,169.202 127.356 C 169.201 127.112,168.761 126.582,168.224 126.179 C 167.687 125.776,167.338 125.301,167.448 125.123 C 167.557 124.945,167.367 124.800,167.024 124.800 C 166.681 124.800,166.421 124.665,166.447 124.500 C 166.575 123.689,166.314 123.289,165.377 122.863 C 164.815 122.606,164.466 122.217,164.602 121.998 C 164.737 121.778,164.367 121.416,163.779 121.192 C 162.985 120.890,162.764 120.582,162.918 119.993 C 163.032 119.557,162.951 119.200,162.739 119.200 C 162.527 119.200,162.458 119.029,162.587 118.821 C 162.716 118.612,162.457 118.512,162.011 118.598 C 161.565 118.684,161.200 118.584,161.200 118.377 C 161.200 118.170,161.387 118.000,161.616 118.000 C 161.855 118.000,161.813 117.765,161.516 117.444 C 161.186 117.089,160.908 117.036,160.743 117.298 C 160.602 117.522,160.363 117.141,160.211 116.450 C 159.947 115.248,158.768 114.166,158.268 114.666 C 158.137 114.796,157.814 114.430,157.551 113.852 C 157.287 113.273,156.830 112.800,156.536 112.800 C 156.216 112.800,156.000 112.350,156.000 111.683 C 156.000 110.795,155.714 110.437,154.600 109.932 C 153.830 109.583,153.200 109.338,153.200 109.388 M150.806 174.876 C 150.800 176.022,151.378 176.683,151.796 176.007 C 151.934 175.783,151.846 175.600,151.600 175.600 C 151.354 175.600,151.242 175.456,151.350 175.281 C 151.458 175.105,151.382 174.700,151.180 174.381 C 150.903 173.944,150.811 174.066,150.806 174.876 M144.115 191.653 C 144.067 192.323,144.195 192.726,144.415 192.591 C 144.870 192.309,144.931 190.928,144.500 190.663 C 144.335 190.561,144.162 191.007,144.115 191.653 M193.733 231.314 C 193.733 231.597,194.043 231.829,194.421 231.829 C 194.817 231.829,195.025 231.610,194.912 231.314 C 194.803 231.031,194.494 230.800,194.224 230.800 C 193.954 230.800,193.733 231.031,193.733 231.314 M150.903 288.705 C 150.961 289.482,151.196 289.600,152.685 289.600 L 154.400 289.600 154.400 300.780 L 154.400 311.960 152.100 312.104 C 150.835 312.184,153.040 312.303,157.000 312.369 C 160.960 312.435,164.785 312.557,165.500 312.640 L 166.800 312.790 166.800 300.875 C 166.800 292.141,166.672 288.832,166.320 288.480 C 165.661 287.821,161.202 287.838,161.194 288.500 C 161.190 288.845,161.097 288.864,160.894 288.561 C 160.574 288.082,159.121 287.948,159.415 288.425 C 159.514 288.585,159.371 288.801,159.098 288.905 C 158.361 289.185,156.000 288.765,156.000 288.355 C 156.000 288.160,155.809 288.000,155.576 288.000 C 155.343 288.000,155.256 288.167,155.382 288.371 C 155.508 288.575,155.245 288.859,154.797 289.001 C 153.790 289.321,151.499 288.856,151.118 288.255 C 150.962 288.010,150.866 288.213,150.903 288.705 " stroke="none" fill="#d43ce4" fill-rule="evenodd"></path><path id="path2" d="M239.800 95.600 C 239.936 95.820,241.612 96.036,243.524 96.079 L 247.000 96.159 244.112 96.297 L 241.224 96.435 241.112 107.852 C 241.028 116.372,241.122 119.370,241.481 119.668 C 242.252 120.307,255.152 119.926,255.568 119.251 C 255.807 118.864,255.948 118.844,256.060 119.180 C 256.244 119.732,258.326 120.043,258.623 119.564 C 258.734 119.383,259.095 119.338,259.424 119.465 C 260.057 119.708,260.222 136.400,259.591 136.400 C 259.250 136.400,259.269 133.643,259.213 193.800 C 259.173 237.435,259.101 242.877,258.577 241.911 C 258.252 241.313,257.584 240.385,257.093 239.849 C 255.639 238.264,255.151 237.600,255.444 237.600 C 255.595 237.600,255.137 237.045,254.427 236.366 C 253.717 235.687,253.229 235.038,253.344 234.923 C 253.543 234.724,253.271 234.314,252.048 232.963 C 251.745 232.628,251.246 232.450,250.939 232.568 C 250.501 232.736,250.470 232.617,250.796 232.008 C 251.128 231.386,251.051 231.149,250.405 230.803 C 249.962 230.566,249.600 230.108,249.600 229.786 C 249.600 229.464,249.420 229.200,249.200 229.200 C 248.980 229.200,248.800 228.930,248.800 228.600 C 248.800 228.270,248.530 228.000,248.200 228.000 C 247.870 228.000,247.621 227.865,247.647 227.700 C 247.769 226.932,247.566 226.374,247.239 226.576 C 247.040 226.699,246.688 226.254,246.456 225.588 C 246.012 224.315,245.101 223.200,244.505 223.200 C 244.311 223.200,243.804 222.920,243.376 222.578 C 242.626 221.977,242.630 221.970,243.474 222.378 C 244.768 223.003,244.896 222.896,243.969 221.969 C 243.512 221.512,242.895 221.232,242.597 221.346 C 242.216 221.492,242.077 221.237,242.128 220.487 C 242.170 219.866,241.991 219.416,241.700 219.410 C 241.425 219.404,241.215 219.240,241.234 219.045 C 241.281 218.562,240.320 218.002,239.895 218.265 C 239.706 218.381,239.878 218.715,240.276 219.006 C 241.048 219.571,241.846 291.070,241.086 291.632 C 240.699 291.919,241.153 293.200,241.643 293.200 C 241.839 293.200,242.000 293.020,242.000 292.800 C 242.000 292.580,241.784 292.400,241.520 292.400 C 241.190 292.400,241.169 292.271,241.453 291.987 C 242.009 291.431,243.200 291.930,243.200 292.719 C 243.200 293.271,243.136 293.265,242.700 292.670 C 242.250 292.055,242.194 292.087,242.142 292.994 C 242.106 293.634,242.296 294.000,242.666 294.000 C 242.986 294.000,243.136 294.180,243.000 294.400 C 242.668 294.937,243.329 294.911,243.875 294.365 C 244.188 294.052,244.387 294.055,244.585 294.375 C 244.736 294.620,244.644 294.770,244.380 294.710 C 244.116 294.649,243.817 294.825,243.717 295.100 C 243.605 295.405,243.896 295.611,244.467 295.628 C 245.197 295.650,245.254 295.715,244.730 295.928 C 244.170 296.155,244.143 296.314,244.569 296.894 C 244.850 297.275,245.180 297.487,245.303 297.364 C 245.426 297.240,245.643 297.504,245.784 297.949 C 245.925 298.395,246.392 298.870,246.820 299.006 C 247.249 299.143,247.600 299.529,247.600 299.865 C 247.600 301.129,249.836 303.748,250.543 303.312 C 250.752 303.182,250.800 303.277,250.648 303.522 C 250.322 304.050,251.113 305.574,252.100 306.318 C 252.485 306.608,252.800 307.062,252.800 307.326 C 252.800 307.591,253.160 308.032,253.600 308.307 C 254.040 308.582,254.400 308.998,254.400 309.232 C 254.400 309.821,255.450 310.817,255.752 310.514 C 255.889 310.378,256.000 310.584,256.000 310.973 C 256.000 311.361,256.495 312.156,257.100 312.740 C 257.705 313.323,258.455 314.295,258.768 314.900 L 259.335 316.000 269.825 316.000 C 278.780 316.000,280.348 315.912,280.545 315.400 C 280.734 314.908,280.293 314.786,278.087 314.724 L 275.400 314.649 277.700 314.504 L 280.000 314.360 280.000 205.380 L 280.000 96.400 278.000 96.400 C 276.489 96.400,276.000 96.253,276.000 95.800 C 276.000 95.275,273.708 95.200,257.776 95.200 C 245.729 95.200,239.637 95.336,239.800 95.600 M288.504 126.050 C 288.158 126.966,288.163 127.212,288.525 127.092 C 288.786 127.005,289.003 126.768,289.006 126.567 C 289.009 126.365,289.147 125.987,289.313 125.728 C 289.478 125.468,289.465 125.164,289.285 125.052 C 289.104 124.941,288.753 125.390,288.504 126.050 M287.600 128.800 C 287.600 129.547,287.707 129.653,288.080 129.280 C 288.453 128.907,288.453 128.693,288.080 128.320 C 287.707 127.947,287.600 128.053,287.600 128.800 M245.987 225.949 C 245.977 226.496,245.881 226.476,245.387 225.824 C 244.623 224.813,244.631 224.162,245.400 224.800 C 245.730 225.074,245.994 225.591,245.987 225.949 M236.200 286.000 C 236.598 286.440,237.104 286.800,237.323 286.800 C 237.543 286.800,237.307 286.440,236.800 286.000 C 236.293 285.560,235.787 285.200,235.677 285.200 C 235.566 285.200,235.802 285.560,236.200 286.000 " stroke="none" fill="#e43cd4" fill-rule="evenodd"></path><path id="path3" d="M44.300 0.292 C 43.255 0.375,42.400 0.614,42.400 0.822 C 42.400 1.030,41.781 1.200,41.024 1.200 C 40.267 1.200,39.536 1.380,39.400 1.600 C 39.264 1.820,38.801 2.000,38.371 2.000 C 37.941 2.000,37.232 2.180,36.795 2.400 C 36.358 2.620,35.642 2.980,35.205 3.200 C 34.768 3.420,34.194 3.600,33.929 3.600 C 33.464 3.600,28.405 5.987,28.000 6.399 C 27.890 6.510,27.305 6.856,26.700 7.168 C 26.095 7.480,25.600 7.885,25.600 8.068 C 25.600 8.250,25.364 8.400,25.075 8.400 C 24.787 8.400,24.188 8.738,23.745 9.151 C 23.301 9.564,22.592 10.017,22.169 10.158 C 21.150 10.497,18.400 12.997,18.400 13.584 C 18.400 13.839,18.235 13.945,18.034 13.821 C 17.648 13.583,15.200 15.815,15.200 16.404 C 15.200 16.592,14.840 16.860,14.400 17.000 C 13.960 17.140,13.600 17.420,13.600 17.624 C 13.600 17.980,12.491 19.410,11.170 20.757 C 10.085 21.864,8.797 24.262,9.105 24.603 C 9.267 24.782,9.175 24.799,8.900 24.641 C 8.625 24.482,8.400 24.551,8.400 24.793 C 8.400 25.035,8.040 25.620,7.600 26.092 C 7.160 26.564,6.800 27.187,6.800 27.475 C 6.800 27.764,6.620 28.000,6.400 28.000 C 6.180 28.000,6.000 28.371,6.000 28.824 C 6.000 29.277,5.820 29.536,5.600 29.400 C 5.380 29.264,5.200 29.523,5.200 29.976 C 5.200 30.429,4.975 30.803,4.700 30.806 C 4.367 30.810,4.400 30.942,4.800 31.200 C 5.200 31.458,5.233 31.590,4.900 31.594 C 4.625 31.597,4.400 31.870,4.400 32.200 C 4.400 32.530,4.258 32.800,4.085 32.800 C 3.912 32.800,3.740 33.202,3.703 33.694 C 3.666 34.186,3.448 34.651,3.218 34.727 C 2.988 34.804,2.800 35.291,2.800 35.810 C 2.800 36.328,2.620 36.864,2.400 37.000 C 2.180 37.136,2.000 37.787,2.000 38.447 C 2.000 39.107,1.857 39.559,1.683 39.451 C 1.509 39.344,1.323 39.816,1.271 40.501 C 1.219 41.186,0.956 42.011,0.688 42.335 C -0.037 43.208,-0.025 357.658,0.700 357.900 C 0.975 357.992,1.200 358.592,1.200 359.233 C 1.200 359.875,1.380 360.400,1.600 360.400 C 1.820 360.400,2.000 361.030,2.000 361.800 C 2.000 362.570,2.180 363.200,2.400 363.200 C 2.620 363.200,2.800 363.650,2.800 364.200 C 2.800 364.750,2.980 365.200,3.200 365.200 C 3.420 365.200,3.600 365.616,3.600 366.125 C 3.600 366.633,3.967 367.443,4.416 367.925 C 4.940 368.487,5.047 368.802,4.716 368.806 C 4.370 368.810,4.343 368.909,4.632 369.106 C 4.870 369.268,5.319 369.985,5.630 370.700 C 5.941 371.415,6.331 372.000,6.498 372.000 C 6.664 372.000,6.800 372.190,6.800 372.422 C 6.800 372.654,7.520 373.904,8.400 375.200 C 9.280 376.496,10.000 377.746,10.000 377.978 C 10.000 378.210,10.270 378.400,10.600 378.400 C 10.930 378.400,11.200 378.625,11.200 378.900 C 11.201 379.563,12.971 381.600,13.547 381.600 C 13.796 381.600,14.000 381.858,14.000 382.173 C 14.000 382.898,17.610 386.441,18.063 386.161 C 18.249 386.046,18.400 386.156,18.400 386.405 C 18.400 387.141,23.881 391.600,24.786 391.600 C 25.032 391.600,25.620 391.960,26.092 392.400 C 26.564 392.840,27.187 393.200,27.475 393.200 C 27.764 393.200,28.000 393.351,28.000 393.536 C 28.000 393.721,28.720 394.110,29.600 394.400 C 30.480 394.690,31.200 395.079,31.200 395.264 C 31.200 395.449,31.560 395.600,32.000 395.600 C 32.440 395.600,32.800 395.780,32.800 396.000 C 32.800 396.220,33.155 396.400,33.588 396.400 C 34.021 396.400,35.017 396.760,35.800 397.200 C 36.583 397.640,37.658 398.000,38.189 398.000 C 38.719 398.000,39.264 398.180,39.400 398.400 C 39.536 398.620,40.162 398.800,40.790 398.800 C 41.419 398.800,42.008 399.025,42.100 399.300 C 42.233 399.699,74.169 399.800,200.000 399.800 C 325.831 399.800,357.767 399.699,357.900 399.300 C 357.992 399.025,358.502 398.800,359.033 398.800 C 359.565 398.800,360.003 398.575,360.006 398.300 C 360.011 397.932,360.103 397.943,360.356 398.343 C 360.596 398.721,360.783 398.751,360.974 398.443 C 361.124 398.199,361.676 398.000,362.200 398.000 C 362.724 398.000,363.264 397.820,363.400 397.600 C 363.536 397.380,363.982 397.200,364.390 397.200 C 364.799 397.200,365.193 397.025,365.267 396.812 C 365.340 396.598,365.760 396.364,366.200 396.291 C 367.385 396.095,370.000 394.763,370.000 394.354 C 370.000 394.159,370.410 394.000,370.912 394.000 C 371.413 394.000,372.083 393.640,372.400 393.200 C 372.717 392.760,373.297 392.400,373.688 392.400 C 374.080 392.400,374.400 392.220,374.400 392.000 C 374.400 391.780,374.696 391.600,375.057 391.600 C 375.418 391.600,376.272 391.015,376.956 390.300 C 377.639 389.585,378.242 389.040,378.295 389.089 C 378.592 389.363,379.959 388.482,381.028 387.326 C 381.704 386.597,382.410 386.000,382.597 386.000 C 383.195 386.000,386.433 382.376,386.188 381.981 C 386.059 381.771,386.203 381.600,386.509 381.600 C 386.815 381.600,387.302 381.156,387.593 380.614 C 387.883 380.071,388.301 379.739,388.522 379.875 C 388.743 380.012,388.812 379.942,388.675 379.721 C 388.538 379.499,388.703 378.976,389.042 378.559 C 389.382 378.142,389.528 378.053,389.368 378.362 C 389.176 378.731,389.235 378.826,389.538 378.638 C 389.792 378.481,390.000 378.127,390.000 377.852 C 390.000 377.576,390.325 377.002,390.722 376.575 C 391.120 376.149,391.703 375.215,392.020 374.500 C 392.336 373.785,392.731 373.200,392.898 373.200 C 393.064 373.200,393.200 372.945,393.200 372.633 C 393.200 372.322,393.388 372.004,393.618 371.927 C 393.848 371.851,394.065 371.394,394.102 370.911 C 394.138 370.429,394.253 370.120,394.358 370.225 C 394.656 370.523,396.351 366.705,396.377 365.676 C 396.390 365.167,396.579 364.864,396.800 365.000 C 397.026 365.140,397.200 364.812,397.200 364.247 C 397.200 363.697,397.380 363.136,397.600 363.000 C 397.820 362.864,398.000 362.223,398.000 361.576 C 398.000 360.929,398.180 360.400,398.400 360.400 C 398.620 360.400,398.800 359.875,398.800 359.233 C 398.800 358.592,399.025 357.992,399.300 357.900 C 399.783 357.739,400.104 48.591,399.626 44.200 C 399.530 43.320,399.310 42.408,399.137 42.173 C 398.965 41.939,398.779 41.160,398.725 40.443 C 398.670 39.726,398.485 39.052,398.313 38.946 C 398.141 38.840,398.000 38.324,398.000 37.800 C 398.000 37.276,397.820 36.736,397.600 36.600 C 397.380 36.464,397.200 36.003,397.200 35.576 C 397.200 35.149,397.020 34.800,396.800 34.800 C 396.580 34.800,396.400 34.440,396.400 34.000 C 396.400 33.560,396.256 33.200,396.080 33.200 C 395.725 33.200,394.800 30.866,394.800 29.968 C 394.800 29.651,394.440 29.168,394.000 28.893 C 393.560 28.618,393.200 28.125,393.200 27.797 C 393.200 27.468,393.020 27.200,392.800 27.200 C 392.580 27.200,392.400 26.840,392.400 26.400 C 392.400 25.960,392.220 25.600,392.000 25.600 C 391.780 25.600,391.600 25.283,391.600 24.896 C 391.600 24.509,391.146 23.702,390.591 23.104 C 390.037 22.506,389.599 21.912,389.619 21.784 C 389.681 21.381,386.910 18.400,386.473 18.400 C 386.242 18.400,385.951 18.085,385.826 17.700 C 385.495 16.682,382.848 14.000,382.175 14.000 C 381.859 14.000,381.600 13.828,381.600 13.618 C 381.600 13.122,379.678 11.200,379.182 11.200 C 378.972 11.200,378.800 11.001,378.800 10.757 C 378.800 10.514,378.521 10.422,378.179 10.553 C 377.838 10.684,377.652 10.640,377.766 10.456 C 377.879 10.271,377.529 9.883,376.986 9.593 C 376.444 9.302,376.000 8.915,376.000 8.732 C 376.000 8.550,375.775 8.396,375.500 8.391 C 375.225 8.386,374.550 8.030,374.000 7.600 C 373.450 7.170,372.674 6.814,372.276 6.809 C 371.878 6.804,371.664 6.620,371.800 6.400 C 371.936 6.180,371.666 6.000,371.200 6.000 C 370.655 6.000,370.456 5.833,370.642 5.532 C 370.838 5.215,370.711 5.148,370.250 5.325 C 369.829 5.487,369.483 5.361,369.342 4.993 C 369.217 4.667,368.784 4.400,368.381 4.400 C 367.977 4.400,367.536 4.220,367.400 4.000 C 367.264 3.780,366.713 3.600,366.176 3.600 C 365.639 3.600,365.200 3.390,365.200 3.133 C 365.200 2.877,365.085 2.782,364.944 2.923 C 364.803 3.064,364.218 2.937,363.644 2.640 C 362.202 1.897,359.910 1.200,358.905 1.200 C 358.444 1.200,357.992 0.975,357.900 0.700 C 357.743 0.230,50.063 -0.170,44.300 0.292 M351.400 5.991 C 353.160 6.202,355.320 6.566,356.200 6.799 C 357.080 7.032,358.160 7.306,358.600 7.407 C 360.560 7.857,363.644 8.948,363.836 9.259 C 363.952 9.446,364.487 9.600,365.024 9.600 C 365.561 9.600,366.000 9.780,366.000 10.000 C 366.000 10.220,366.270 10.400,366.600 10.400 C 366.930 10.400,367.201 10.535,367.203 10.700 C 367.207 11.069,369.152 12.000,369.919 12.000 C 370.227 12.000,371.001 12.559,371.640 13.242 C 372.278 13.926,372.800 14.271,372.800 14.010 C 372.800 13.748,373.506 14.269,374.369 15.167 C 375.231 16.065,376.232 16.800,376.592 16.800 C 376.952 16.800,377.160 16.941,377.053 17.113 C 376.947 17.286,377.422 17.871,378.108 18.413 C 380.019 19.923,382.400 22.324,382.400 22.741 C 382.400 22.947,382.696 23.228,383.057 23.367 C 383.419 23.505,383.605 23.728,383.471 23.862 C 383.338 23.996,383.762 24.604,384.414 25.213 C 385.066 25.822,385.600 26.619,385.600 26.984 C 385.600 27.349,385.780 27.536,386.000 27.400 C 386.220 27.264,386.400 27.367,386.400 27.629 C 386.400 27.892,386.772 28.429,387.226 28.823 C 387.681 29.217,388.041 29.643,388.026 29.770 C 387.924 30.670,388.099 31.156,388.800 31.908 C 389.240 32.380,389.600 33.134,389.600 33.583 C 389.600 34.032,389.780 34.400,390.000 34.400 C 390.220 34.400,390.400 34.760,390.400 35.200 C 390.400 35.640,390.580 36.000,390.800 36.000 C 391.020 36.000,391.200 36.272,391.200 36.605 C 391.200 36.938,391.368 37.523,391.573 37.905 C 391.779 38.287,392.178 39.455,392.461 40.500 C 392.743 41.545,393.099 42.400,393.250 42.400 C 393.401 42.400,393.438 42.734,393.331 43.141 C 393.225 43.549,393.361 44.674,393.635 45.641 C 393.909 46.609,394.209 48.030,394.303 48.800 C 394.640 51.580,394.790 349.331,394.455 349.760 C 394.266 350.002,394.084 351.071,394.051 352.135 C 394.018 353.199,393.798 354.431,393.561 354.872 C 393.325 355.313,393.241 356.108,393.374 356.637 C 393.507 357.167,393.476 357.600,393.305 357.600 C 392.933 357.600,392.000 360.456,392.000 361.594 C 392.000 362.037,391.864 362.400,391.698 362.400 C 391.400 362.400,391.007 363.228,389.986 366.000 C 389.702 366.770,389.140 367.772,388.735 368.226 C 388.331 368.680,388.000 369.265,388.000 369.526 C 388.000 369.787,387.820 370.000,387.600 370.000 C 387.380 370.000,387.200 370.320,387.200 370.712 C 387.200 371.103,386.840 371.683,386.400 372.000 C 385.960 372.317,385.600 372.857,385.600 373.200 C 385.600 373.543,385.240 374.083,384.800 374.400 C 384.360 374.717,384.000 375.130,384.000 375.317 C 384.000 375.504,383.766 375.892,383.479 376.178 C 383.193 376.465,382.338 377.452,381.579 378.373 C 380.821 379.294,379.210 380.802,378.000 381.724 C 376.790 382.646,375.166 384.030,374.391 384.800 C 373.616 385.570,372.727 386.256,372.416 386.325 C 372.105 386.394,371.569 386.754,371.225 387.125 C 370.881 387.496,370.243 387.862,369.807 387.939 C 369.371 388.015,368.533 388.420,367.945 388.839 C 367.358 389.257,366.679 389.600,366.438 389.600 C 366.197 389.600,366.000 389.780,366.000 390.000 C 366.000 390.220,365.657 390.400,365.238 390.400 C 364.819 390.400,363.784 390.743,362.938 391.163 C 360.541 392.352,355.306 393.648,350.400 394.265 C 347.227 394.664,51.965 394.863,51.440 394.466 C 51.198 394.283,50.108 394.088,49.019 394.032 C 47.929 393.976,45.499 393.570,43.619 393.131 C 41.738 392.692,39.703 392.237,39.095 392.120 C 38.487 392.003,37.892 391.749,37.771 391.554 C 37.651 391.359,37.203 391.200,36.776 391.200 C 36.349 391.200,36.000 391.020,36.000 390.800 C 36.000 390.580,35.550 390.400,35.000 390.400 C 34.450 390.400,34.000 390.220,34.000 390.000 C 34.000 389.780,33.722 389.600,33.383 389.600 C 33.044 389.600,32.380 389.240,31.908 388.800 C 31.159 388.102,30.708 387.937,29.779 388.020 C 29.657 388.031,29.045 387.491,28.418 386.820 C 27.792 386.149,27.081 385.600,26.840 385.600 C 26.598 385.600,25.661 384.882,24.756 384.004 C 23.851 383.126,22.951 382.506,22.756 382.627 C 22.560 382.748,22.400 382.675,22.400 382.465 C 22.400 382.012,17.567 377.200,17.113 377.200 C 16.941 377.200,16.800 376.912,16.800 376.560 C 16.800 376.209,16.260 375.417,15.600 374.800 C 14.940 374.183,14.386 373.346,14.368 372.940 C 14.348 372.471,14.259 372.394,14.126 372.728 C 13.889 373.319,12.800 371.513,12.800 370.531 C 12.800 370.213,12.620 370.064,12.400 370.200 C 12.180 370.336,12.000 370.077,12.000 369.624 C 12.000 369.171,11.820 368.800,11.600 368.800 C 11.380 368.800,11.200 368.480,11.200 368.088 C 11.200 367.697,10.840 367.117,10.400 366.800 C 9.930 366.461,9.600 365.765,9.600 365.112 C 9.600 364.500,9.420 364.000,9.200 364.000 C 8.980 364.000,8.800 363.586,8.800 363.080 C 8.800 362.574,8.584 361.944,8.320 361.680 C 8.056 361.416,7.955 361.200,8.096 361.200 C 8.237 361.200,8.107 360.728,7.808 360.150 C 7.508 359.573,7.358 358.854,7.473 358.554 C 7.589 358.253,7.426 357.908,7.112 357.788 C 6.788 357.663,6.533 357.013,6.522 356.284 C 6.511 355.578,6.270 353.560,5.987 351.800 C 5.362 347.914,4.948 50.800,5.568 50.800 C 5.895 50.800,6.163 48.882,6.489 44.200 C 6.550 43.320,6.851 42.403,7.159 42.163 C 7.505 41.892,7.638 41.309,7.508 40.631 C 7.372 39.917,7.489 39.464,7.847 39.327 C 8.149 39.211,8.304 38.967,8.191 38.786 C 8.079 38.604,8.170 38.342,8.393 38.204 C 8.617 38.066,8.800 37.524,8.800 37.000 C 8.800 36.476,8.980 35.936,9.200 35.800 C 9.420 35.664,9.600 35.203,9.600 34.776 C 9.600 34.349,9.780 34.000,10.000 34.000 C 10.220 34.000,10.400 33.722,10.400 33.383 C 10.400 33.044,10.760 32.380,11.200 31.908 C 11.640 31.436,12.000 30.712,12.000 30.301 C 12.000 29.889,12.180 29.664,12.400 29.800 C 12.620 29.936,12.800 29.764,12.800 29.418 C 12.800 28.477,13.624 27.204,15.316 25.531 C 16.149 24.707,16.824 23.935,16.816 23.816 C 16.758 23.025,16.838 22.773,17.100 22.916 C 17.484 23.126,23.187 17.320,22.889 17.023 C 22.767 16.900,22.984 16.800,23.373 16.800 C 23.761 16.800,24.583 16.260,25.200 15.600 C 25.817 14.940,26.569 14.400,26.872 14.400 C 27.175 14.400,27.683 14.040,28.000 13.600 C 28.317 13.160,28.897 12.800,29.288 12.800 C 29.680 12.800,30.000 12.620,30.000 12.400 C 30.000 12.180,30.236 12.000,30.525 12.000 C 30.813 12.000,31.436 11.640,31.908 11.200 C 32.380 10.760,33.044 10.400,33.383 10.400 C 33.722 10.400,34.000 10.220,34.000 10.000 C 34.000 9.780,34.332 9.600,34.739 9.600 C 35.145 9.600,36.053 9.313,36.756 8.962 C 37.459 8.611,38.252 8.287,38.517 8.242 C 38.783 8.197,39.990 7.874,41.200 7.524 C 45.109 6.394,47.171 6.000,49.182 6.000 C 50.266 6.000,51.263 5.821,51.399 5.602 C 51.561 5.340,101.288 5.203,197.690 5.201 C 278.015 5.199,343.793 5.140,343.863 5.070 C 343.934 5.000,344.938 5.092,346.096 5.274 C 347.253 5.457,349.640 5.780,351.400 5.991 M237.694 95.133 C 236.876 95.653,237.175 120.596,238.000 120.611 C 238.330 120.618,238.835 120.303,239.123 119.911 C 239.664 119.174,240.637 118.893,240.200 119.600 C 240.064 119.820,240.345 120.000,240.825 120.000 C 241.595 120.000,241.633 119.920,241.149 119.323 C 240.847 118.951,240.780 118.754,241.000 118.885 C 241.264 119.043,241.362 115.265,241.288 107.780 L 241.176 96.436 244.088 96.297 L 247.000 96.159 243.600 96.067 C 241.354 96.006,239.937 95.775,239.424 95.387 C 238.534 94.715,238.388 94.693,237.694 95.133 M192.236 157.942 C 192.120 158.129,192.468 158.485,193.009 158.731 C 193.766 159.076,193.971 159.066,193.897 158.690 C 193.718 157.787,192.634 157.298,192.236 157.942 M194.132 160.566 C 194.285 160.965,194.229 161.142,193.995 160.997 C 193.736 160.837,193.600 172.533,193.600 194.994 C 193.600 226.563,193.549 229.226,192.941 229.118 C 192.579 229.053,192.204 229.225,192.108 229.500 C 192.001 229.806,192.295 230.002,192.867 230.006 C 193.554 230.011,193.655 230.104,193.249 230.361 C 192.673 230.726,192.954 231.600,193.647 231.600 C 193.867 231.600,193.936 231.420,193.800 231.200 C 193.664 230.980,193.814 230.800,194.134 230.800 C 194.453 230.800,194.822 231.079,194.953 231.421 C 195.089 231.777,195.022 231.937,194.795 231.797 C 194.111 231.374,193.563 231.994,194.104 232.579 C 194.377 232.874,194.733 233.036,194.895 232.937 C 195.058 232.839,195.073 233.064,194.930 233.438 C 194.711 234.008,194.857 234.082,195.827 233.897 C 196.832 233.705,196.894 233.742,196.296 234.179 C 195.648 234.653,195.653 234.724,196.364 235.367 C 196.868 235.824,197.210 235.908,197.388 235.620 C 197.708 235.102,198.403 235.450,198.394 236.124 C 198.390 236.449,198.280 236.430,198.050 236.066 C 197.769 235.625,197.675 235.628,197.500 236.083 C 197.258 236.714,198.147 238.120,198.540 237.727 C 198.683 237.584,198.800 237.785,198.800 238.173 C 198.800 238.562,199.421 239.501,200.179 240.259 C 200.938 241.018,201.671 241.992,201.808 242.425 C 201.945 242.858,202.198 243.125,202.369 243.019 C 202.540 242.914,202.917 243.271,203.207 243.814 C 203.498 244.356,203.885 244.800,204.068 244.800 C 204.250 244.800,204.400 245.081,204.400 245.424 C 204.400 245.767,204.580 245.936,204.800 245.800 C 205.020 245.664,205.200 245.904,205.200 246.334 C 205.200 246.763,205.461 247.214,205.779 247.337 C 206.098 247.459,206.664 248.153,207.038 248.879 C 207.412 249.606,208.018 250.470,208.384 250.800 C 208.751 251.130,209.641 252.267,210.363 253.327 C 211.085 254.387,211.929 255.351,212.238 255.470 C 212.547 255.589,212.800 255.930,212.800 256.229 C 212.800 256.527,213.160 256.965,213.600 257.200 C 214.040 257.435,214.400 257.892,214.400 258.214 C 214.400 258.536,214.580 258.800,214.800 258.800 C 215.020 258.800,215.200 259.064,215.200 259.386 C 215.200 259.708,215.560 260.165,216.000 260.400 C 216.440 260.635,216.800 261.052,216.800 261.326 C 216.800 261.599,217.160 262.083,217.600 262.400 C 218.040 262.717,218.400 263.198,218.400 263.468 C 218.400 263.739,218.715 264.144,219.100 264.368 C 219.485 264.592,219.663 264.781,219.497 264.788 C 219.330 264.795,219.735 265.367,220.397 266.059 C 221.058 266.752,221.600 267.483,221.600 267.683 C 221.600 267.883,221.784 267.933,222.010 267.794 C 222.235 267.655,222.394 267.689,222.363 267.870 C 222.216 268.714,222.463 269.166,223.200 269.400 C 223.640 269.540,224.006 269.957,224.013 270.327 C 224.029 271.183,224.942 272.400,225.568 272.400 C 225.831 272.400,225.944 272.567,225.818 272.771 C 225.692 272.975,225.951 273.257,226.394 273.398 C 226.837 273.539,227.200 273.920,227.200 274.245 C 227.200 274.570,227.636 275.272,228.169 275.805 C 228.702 276.338,229.254 277.140,229.396 277.587 C 229.538 278.034,229.957 278.414,230.327 278.432 C 230.721 278.450,230.798 278.545,230.513 278.660 C 230.208 278.784,230.585 279.407,231.523 280.329 C 232.346 281.138,233.263 282.281,233.560 282.868 C 233.883 283.506,234.324 283.851,234.655 283.724 C 235.027 283.581,235.132 283.713,234.974 284.125 C 234.825 284.513,235.077 284.920,235.661 285.232 C 236.771 285.827,237.794 286.800,237.309 286.800 C 237.117 286.800,236.733 286.575,236.456 286.300 C 236.052 285.899,236.005 285.939,236.219 286.500 C 236.366 286.885,236.891 287.200,237.387 287.200 C 238.133 287.200,238.256 287.373,238.098 288.200 C 237.958 288.933,238.079 289.200,238.553 289.200 C 238.909 289.200,239.155 289.425,239.100 289.700 C 239.045 289.975,239.225 290.155,239.500 290.100 C 239.775 290.045,239.955 290.210,239.900 290.467 C 239.845 290.724,240.204 291.145,240.698 291.403 C 241.191 291.661,241.524 291.945,241.438 292.036 C 241.351 292.126,241.567 292.464,241.916 292.787 C 242.484 293.310,242.522 293.289,242.275 292.587 C 242.002 291.810,242.006 291.810,242.599 292.576 C 243.101 293.226,243.200 293.246,243.200 292.703 C 243.200 292.346,242.859 291.946,242.443 291.814 C 241.216 291.424,241.211 291.277,241.205 254.900 C 241.200 221.043,241.177 219.977,240.433 219.233 C 239.614 218.414,239.719 217.917,240.637 218.269 C 240.944 218.387,241.104 218.633,240.991 218.814 C 240.879 218.996,240.970 219.258,241.193 219.396 C 241.417 219.534,241.594 219.412,241.587 219.124 C 241.570 218.411,240.614 217.200,240.068 217.200 C 239.825 217.200,239.725 216.941,239.846 216.624 C 239.971 216.298,239.706 215.823,239.233 215.528 C 238.775 215.242,238.400 214.790,238.400 214.524 C 238.400 213.806,236.572 211.966,236.196 212.307 C 236.018 212.468,235.987 212.398,236.128 212.150 C 236.270 211.903,235.957 211.239,235.434 210.675 C 234.912 210.111,234.600 209.520,234.742 209.361 C 234.884 209.202,234.676 209.189,234.279 209.332 C 233.819 209.497,233.654 209.436,233.823 209.163 C 233.968 208.928,233.707 208.470,233.243 208.145 C 232.780 207.820,232.387 207.160,232.372 206.677 C 232.345 205.832,232.331 205.829,232.000 206.600 C 231.695 207.309,231.653 207.275,231.628 206.300 C 231.610 205.601,231.381 205.200,231.000 205.200 C 230.670 205.200,230.400 205.033,230.400 204.829 C 230.400 204.624,230.175 204.219,229.900 203.929 C 229.625 203.638,229.145 202.905,228.833 202.301 C 228.521 201.696,228.186 201.281,228.088 201.378 C 227.800 201.667,226.000 199.338,226.000 198.676 C 226.000 198.341,225.865 198.007,225.700 197.933 C 225.535 197.860,224.832 197.138,224.138 196.329 C 223.443 195.520,222.768 194.965,222.638 195.096 C 222.507 195.226,222.400 195.036,222.400 194.674 C 222.400 194.047,221.284 192.582,219.300 190.605 C 218.805 190.112,218.400 189.504,218.400 189.254 C 218.400 189.004,218.220 188.800,218.000 188.800 C 217.780 188.800,217.600 188.549,217.600 188.243 C 217.600 187.936,217.319 187.578,216.975 187.446 C 216.631 187.314,216.437 187.063,216.545 186.889 C 216.652 186.715,216.214 186.154,215.570 185.642 C 214.927 185.129,214.400 184.537,214.400 184.326 C 214.400 184.115,214.175 183.715,213.900 183.437 C 213.625 183.159,213.050 182.463,212.623 181.890 C 212.196 181.317,211.701 180.938,211.523 181.048 C 211.345 181.157,211.200 180.893,211.200 180.459 C 211.200 180.026,210.660 179.217,210.000 178.661 C 209.340 178.106,208.800 177.370,208.800 177.026 C 208.800 176.667,208.459 176.400,208.000 176.400 C 207.503 176.400,207.200 176.133,207.200 175.696 C 207.200 175.309,206.833 174.763,206.384 174.483 C 205.936 174.203,205.669 173.812,205.791 173.614 C 205.913 173.417,205.605 172.969,205.107 172.620 C 204.608 172.270,204.245 171.898,204.300 171.792 C 204.544 171.324,204.363 170.800,203.957 170.800 C 203.714 170.800,203.622 171.079,203.753 171.421 C 203.894 171.790,203.824 171.938,203.579 171.787 C 203.353 171.647,203.284 171.165,203.427 170.716 C 203.596 170.184,203.536 169.992,203.255 170.166 C 203.006 170.320,202.580 169.848,202.247 169.050 C 201.929 168.290,201.114 167.173,200.435 166.568 C 199.756 165.963,199.200 165.244,199.200 164.969 C 199.200 164.695,198.689 164.041,198.065 163.516 C 197.441 162.991,196.726 162.210,196.477 161.780 C 196.228 161.351,196.019 161.225,196.012 161.500 C 195.991 162.353,195.263 162.049,195.128 161.131 C 195.058 160.654,194.746 160.179,194.436 160.077 C 194.044 159.947,193.951 160.096,194.132 160.566 M242.243 220.633 C 241.896 221.536,241.929 221.602,242.600 221.345 C 242.930 221.218,243.200 220.864,243.200 220.557 C 243.200 219.799,242.543 219.851,242.243 220.633 M187.374 223.958 C 187.523 224.199,188.016 224.595,188.471 224.838 C 189.062 225.154,189.220 225.156,189.026 224.842 C 188.877 224.601,188.384 224.205,187.929 223.962 C 187.338 223.646,187.180 223.644,187.374 223.958 M244.800 224.675 C 244.800 225.416,245.973 226.675,245.987 225.949 C 245.994 225.591,245.730 225.074,245.400 224.800 C 245.070 224.526,244.800 224.470,244.800 224.675 M250.695 232.097 C 250.569 232.424,250.783 232.629,251.250 232.629 C 251.668 232.629,251.951 232.453,251.880 232.239 C 251.670 231.611,250.916 231.521,250.695 232.097 M246.492 299.675 C 246.739 300.417,247.600 300.540,247.600 299.833 C 247.600 299.485,247.315 299.200,246.967 299.200 C 246.618 299.200,246.405 299.414,246.492 299.675 M250.091 303.536 C 249.706 303.779,249.803 304.049,250.484 304.629 C 251.155 305.203,251.251 305.225,250.859 304.718 C 250.569 304.342,250.447 303.847,250.589 303.618 C 250.896 303.120,250.776 303.100,250.091 303.536 " stroke="none" fill="#dc3cdc" fill-rule="evenodd"></path><path id="path4" d="M257.300 95.100 C 273.552 95.194,276.000 95.286,276.000 95.804 C 276.000 96.253,276.495 96.400,278.000 96.400 L 280.000 96.400 280.000 205.380 L 280.000 314.360 277.700 314.504 L 275.400 314.649 278.087 314.724 C 280.326 314.787,280.735 314.903,280.538 315.417 C 280.335 315.946,280.791 316.024,283.760 315.966 L 287.218 315.897 287.201 224.649 C 287.188 160.359,287.309 133.431,287.609 133.506 C 287.907 133.580,287.905 133.370,287.603 132.806 C 287.366 132.363,287.328 132.000,287.519 132.000 C 288.159 132.000,287.876 130.800,287.233 130.788 C 286.664 130.777,286.666 130.737,287.246 130.398 C 287.685 130.142,287.827 129.676,287.688 128.951 C 287.554 128.248,287.632 127.972,287.914 128.147 C 288.454 128.481,289.044 127.604,288.514 127.255 C 287.953 126.887,288.861 125.000,289.600 125.000 C 289.930 125.000,290.175 124.687,290.145 124.304 C 290.115 123.922,290.238 123.700,290.418 123.811 C 290.597 123.922,290.858 123.830,290.996 123.607 C 291.134 123.383,291.046 123.200,290.800 123.200 C 290.554 123.200,290.466 123.017,290.604 122.793 C 290.742 122.570,291.000 122.477,291.178 122.586 C 291.355 122.696,292.188 121.979,293.028 120.993 C 293.868 120.007,294.770 119.200,295.032 119.200 C 295.294 119.200,295.976 118.958,296.547 118.661 C 297.118 118.365,298.083 118.153,298.692 118.191 C 299.302 118.228,299.912 118.093,300.048 117.889 C 300.185 117.686,300.950 117.520,301.748 117.520 C 302.572 117.520,303.203 117.321,303.206 117.060 C 303.209 116.807,303.384 116.870,303.594 117.200 C 303.904 117.688,304.122 117.709,304.759 117.314 C 305.374 116.934,305.585 116.934,305.740 117.314 C 305.890 117.685,305.944 117.682,305.968 117.300 C 305.987 117.000,306.566 116.800,307.411 116.800 L 308.821 116.800 308.787 105.991 C 308.766 99.346,308.608 95.271,308.376 95.415 C 308.169 95.543,308.000 95.457,308.000 95.224 C 308.000 94.928,297.516 94.829,273.300 94.896 C 254.088 94.949,246.947 95.040,257.300 95.100 " stroke="none" fill="#e43ccc" fill-rule="evenodd"></path></g></svg>